<svg xmlns="http://www.w3.org/2000/svg" width="24" height="24" viewBox="0 0 24 24"><path d="M0,0H24V24H0Z" fill="none"/><path d="M9,19c-4.286,1.35-4.286-2.55-6-3m12,5V17.5c0-1,.1-1.405-.5-2,2.791-.3,5.5-1.366,5.5-6.04a4.567,4.567,0,0,0-1.333-3.21,4.192,4.192,0,0,0-.08-3.227s-1.05-.3-3.476,1.267a12.334,12.334,0,0,0-6.222,0C6.462,2.723,5.413,3.023,5.413,3.023a4.192,4.192,0,0,0-.08,3.227A4.566,4.566,0,0,0,4,9.486c0,4.64,2.709,5.68,5.5,6.014a2.19,2.19,0,0,0-.5,2V21" fill="none" stroke="#19b5fe" stroke-linecap="round" stroke-linejoin="round" stroke-width="1.5"/></svg>