<svg xmlns="http://www.w3.org/2000/svg" width="24" height="24" viewBox="0 0 24 24"><g transform="translate(-403 -589)"><g transform="translate(391.884 593)"><g transform="translate(15.116)"><path d="M26.983,12.688h-6.3l-.49-1.922h8.2l1.773-7.09h-5.9V0H23.33V3.676H18.386l-.635-2.488H15.116v.938h1.906l2.719,10.656a1.656,1.656,0,1,0,2.038.844h3.711a1.656,1.656,0,1,0,1.492-.937ZM18.625,4.613h4.7V6.754L22.208,5.633l-.663.663L23.8,8.549,26.052,6.3l-.663-.663L24.267,6.754V4.613h4.7l-1.3,5.215H19.956Zm1.663,10.449a.718.718,0,1,1,.718-.718A.719.719,0,0,1,20.288,15.063Zm6.695,0a.718.718,0,1,1,.718-.718A.719.719,0,0,1,26.983,15.063Z" transform="translate(-15.116)" fill="#fff"/></g></g><rect width="24" height="24" transform="translate(403 589)" fill="none"/></g></svg>