<svg xmlns="http://www.w3.org/2000/svg" width="200" height="40.268" viewBox="0 0 200 40.268"><g transform="translate(-390.45 -37)"><path d="M14.75,20.811H10.327V14.643L3.885,16.626v4.185H.45v6.344H3.885v7.8c0,3.216.773,5.419,2.362,6.7q2.383,1.85,8.5,1.19V36.848c-3.135.176-4.423-.132-4.423-1.894v-7.8H14.75ZM39.828,34.469a13.127,13.127,0,0,0,.258-2.643,11.524,11.524,0,0,0-3.135-8.283,10.061,10.061,0,0,0-7.773-3.348,10.887,10.887,0,0,0-8.245,3.348,11.557,11.557,0,0,0-3.178,8.283,11.445,11.445,0,0,0,3.221,8.327,11.667,11.667,0,0,0,8.674,3.3c4.122,0,7.257-1.5,9.361-4.538l-5.153-3.04a5.267,5.267,0,0,1-4.122,1.674c-2.705,0-4.423-1.013-5.153-3.084ZM24.455,29.535a4.369,4.369,0,0,1,4.681-3.48,4.291,4.291,0,0,1,4.552,3.48ZM54.042,43.456a10.928,10.928,0,0,0,9.705-5.683l-5.625-3.3a4.175,4.175,0,0,1-4.165,2.467A4.815,4.815,0,0,1,49.1,31.826a4.815,4.815,0,0,1,4.853-5.111,4.213,4.213,0,0,1,4.165,2.467l5.625-3.348a11.115,11.115,0,0,0-9.705-5.639,10.893,10.893,0,0,0-8.159,3.348,11.485,11.485,0,0,0-3.221,8.283,11.485,11.485,0,0,0,3.221,8.283A10.893,10.893,0,0,0,54.042,43.456ZM79.121,20.195c-2.791,0-4.853.881-6.141,2.687V12H66.539V42.84H72.98V30.812c0-3,1.546-4.538,3.994-4.538,2.19,0,3.736,1.41,3.736,4.009V42.84h6.441V29.314a9.288,9.288,0,0,0-2.319-6.7A7.455,7.455,0,0,0,79.121,20.195Zm28.213,2.864a7.534,7.534,0,0,0-6.27-2.864,9.848,9.848,0,0,0-7.558,3.3A11.13,11.13,0,0,0,90.5,31.385a11.311,11.311,0,0,0,3.006,7.93,9.96,9.96,0,0,0,7.558,3.26,7.534,7.534,0,0,0,6.27-2.864v2.027c0,3.04-1.8,4.714-4.853,4.714a5.12,5.12,0,0,1-4.9-2.776l-5.5,3.26c1.932,3.569,5.325,5.331,10.177,5.331a12.244,12.244,0,0,0,8.03-2.687c2.19-1.762,3.307-4.362,3.307-7.842V20.811h-6.27ZM98.4,35.086a4.815,4.815,0,0,1-1.46-3.7,4.815,4.815,0,0,1,1.46-3.7,5.655,5.655,0,0,1,7.472,0,4.815,4.815,0,0,1,1.46,3.7,4.815,4.815,0,0,1-1.46,3.7,5.655,5.655,0,0,1-7.472,0Zm40.924-.617a13.127,13.127,0,0,0,.258-2.643,11.524,11.524,0,0,0-3.135-8.283,10.061,10.061,0,0,0-7.773-3.348,10.887,10.887,0,0,0-8.245,3.348,11.557,11.557,0,0,0-3.178,8.283,11.445,11.445,0,0,0,3.221,8.327,11.667,11.667,0,0,0,8.674,3.3c4.123,0,7.257-1.5,9.361-4.538l-5.153-3.04a5.267,5.267,0,0,1-4.122,1.674c-2.705,0-4.423-1.013-5.153-3.084Zm-15.373-4.934a4.369,4.369,0,0,1,4.681-3.48,4.291,4.291,0,0,1,4.552,3.48Zm34.655-6.653a7.862,7.862,0,0,0-6.4-2.687,9.428,9.428,0,0,0-7.257,3.392,11.843,11.843,0,0,0-3.006,8.239,11.953,11.953,0,0,0,3.006,8.283,9.383,9.383,0,0,0,7.257,3.348,7.862,7.862,0,0,0,6.4-2.687V42.84h6.441V20.811h-6.441Zm-8.8,12.865a5.4,5.4,0,0,1-1.417-3.921A5.4,5.4,0,0,1,149.8,27.9a5.417,5.417,0,0,1,7.386,0,5.4,5.4,0,0,1,1.417,3.921,5.4,5.4,0,0,1-1.417,3.921,5.417,5.417,0,0,1-7.386,0Zm26.41-14.935h-6.441V42.84h6.441V32.883a4.494,4.494,0,0,1,2.018-4.185,6.23,6.23,0,0,1,4.423-.837v-7.49c-2.92,0-5.625,1.542-6.441,4.362Z" transform="translate(390 25)" fill="#fff"/><path d="M0,0,11.819,11.819,23.639,0Z" transform="translate(590.45 54.116) rotate(135)" fill="#19b5fe"/></g></svg>