<svg xmlns="http://www.w3.org/2000/svg" width="24" height="24" viewBox="0 0 24 24"><path d="M0,0H24V24H0Z" fill="none"/><path d="M5,4H9l2,5L8.5,10.5a11,11,0,0,0,5,5L15,13l5,2v4a2,2,0,0,1-2,2A16,16,0,0,1,3,6,2,2,0,0,1,5,4" fill="none" stroke="#19b5fe" stroke-linecap="round" stroke-linejoin="round" stroke-width="1.5"/><path d="M15,7a2,2,0,0,1,2,2" fill="none" stroke="#19b5fe" stroke-linecap="round" stroke-linejoin="round" stroke-width="1.5"/><path d="M15,3a6,6,0,0,1,6,6" fill="none" stroke="#19b5fe" stroke-linecap="round" stroke-linejoin="round" stroke-width="1.5"/></svg>