<svg xmlns="http://www.w3.org/2000/svg" width="24" height="24" viewBox="0 0 24 24"><g transform="translate(-597 -589)"><g transform="translate(595 587)"><path d="M14,22a8,8,0,1,1,8-8A8.008,8.008,0,0,1,14,22ZM14,7.333A6.667,6.667,0,1,0,20.667,14,6.674,6.674,0,0,0,14,7.333Z" fill="#fff"/><path d="M12.167,16.333a.667.667,0,0,1-.667-.667v-4a.667.667,0,1,1,1.333,0v4A.667.667,0,0,1,12.167,16.333Z" transform="translate(1.833 1.667)" fill="#fff"/><circle cx="0.667" cy="0.667" r="0.667" transform="translate(13.333 10)" fill="#fff"/></g><rect width="24" height="24" transform="translate(597 589)" fill="none"/></g></svg>